<svg xmlns="http://www.w3.org/2000/svg" viewBox="0 0 960 540" fill="none">
  <defs>
    <linearGradient id="sky" x1="0" y1="0" x2="0" y2="1">
      <stop offset="0" stop-color="#d9edf9" />
      <stop offset="1" stop-color="#bfd8e8" />
    </linearGradient>
    <linearGradient id="ground" x1="0" y1="0" x2="1" y2="0">
      <stop offset="0" stop-color="#ceb28b" />
      <stop offset="1" stop-color="#bd9f74" />
    </linearGradient>
  </defs>

  <rect width="960" height="540" fill="url(#sky)" />
  <rect y="230" width="960" height="310" fill="url(#ground)" />

  <rect x="30" y="275" width="900" height="220" rx="10" fill="#8f795e" />
  <rect x="45" y="290" width="870" height="190" rx="8" fill="#6f5a43" />

  <rect x="70" y="250" width="820" height="28" rx="8" fill="#96795a" />
  <rect x="120" y="310" width="720" height="16" rx="6" fill="#4e4032" opacity="0.45" />
  <rect x="120" y="365" width="720" height="16" rx="6" fill="#4e4032" opacity="0.45" />
  <rect x="120" y="420" width="720" height="16" rx="6" fill="#4e4032" opacity="0.45" />

  <g opacity="0.9">
    <ellipse cx="170" cy="355" rx="42" ry="24" fill="#f2eee8" />
    <ellipse cx="260" cy="388" rx="45" ry="25" fill="#e8e0d5" />
    <ellipse cx="338" cy="340" rx="35" ry="21" fill="#f3f0ea" />
    <ellipse cx="430" cy="380" rx="49" ry="26" fill="#ece6dc" />
    <ellipse cx="520" cy="346" rx="41" ry="24" fill="#f1ede6" />
    <ellipse cx="620" cy="392" rx="52" ry="28" fill="#e9dfd0" />
    <ellipse cx="700" cy="350" rx="36" ry="22" fill="#f3efe8" />
    <ellipse cx="780" cy="384" rx="44" ry="25" fill="#e8ddcd" />
  </g>

  <rect x="0" y="500" width="960" height="40" fill="#9c8360" opacity="0.8" />
</svg>